<svg width="24" height="24" viewBox="0 0 24 24" fill="none" xmlns="http://www.w3.org/2000/svg">
<g clip-path="url(#clip0_360_1660)">
<path d="M12 2.00009C13.3265 2.00444 14.639 2.27183 15.8615 2.78677C17.084 3.30172 18.1922 4.05401 19.122 5.00009H15V7.00009H20.143C20.6354 6.99956 21.1074 6.80374 21.4555 6.4556C21.8037 6.10746 21.9995 5.63543 22 5.14309V8.75784e-05H20V3.07809C18.2775 1.52695 16.142 0.508743 13.8524 0.146896C11.5628 -0.21495 9.21744 0.0950946 7.10053 1.03945C4.98361 1.98381 3.18606 3.52193 1.92576 5.46738C0.665458 7.41283 -0.00348417 9.68209 1.36473e-05 12.0001H2.00001C2.00293 9.34882 3.05743 6.80697 4.93216 4.93224C6.80689 3.0575 9.34874 2.003 12 2.00009Z" fill="#282828"/>
<path d="M22 12C22.0029 13.9853 21.4139 15.9265 20.3083 17.5755C19.2027 19.2245 17.6307 20.5065 15.793 21.2578C13.9553 22.0091 11.9354 22.1956 9.99117 21.7935C8.04699 21.3913 6.26681 20.4187 4.878 19H9V17H3.857C3.36466 17.0005 2.89263 17.1963 2.54449 17.5445C2.19635 17.8926 2.00053 18.3647 2 18.857V24H4V20.922C5.72253 22.4731 7.858 23.4913 10.1476 23.8532C12.4372 24.215 14.7826 23.905 16.8995 22.9606C19.0164 22.0163 20.814 20.4782 22.0743 18.5327C23.3346 16.5873 24.0035 14.318 24 12H22Z" fill="#282828"/>
</g>
<defs>
<clipPath id="clip0_360_1660">
<rect width="24" height="24" fill="white"/>
</clipPath>
</defs>
</svg>
