<svg width="99" height="20" viewBox="0 0 99 20" fill="none" xmlns="http://www.w3.org/2000/svg">
<path d="M9.77366 18.5357C15.1715 18.5357 19.5473 14.3863 19.5473 9.26784C19.5473 4.14936 15.1715 2.1913e-07 9.77366 0C4.37582 -2.1913e-07 2.2397e-07 4.14935 0 9.26784C-2.2397e-07 14.3863 4.37582 18.5357 9.77366 18.5357Z" fill="#D92C04"/>
<path d="M32.3968 4.09638C33.6319 4.09638 34.6612 4.48514 35.4846 5.26265C36.3205 6.04016 36.7384 7.00616 36.7384 8.16064C36.7384 9.30335 36.3205 10.2693 35.4846 11.0586C34.6612 11.8361 33.6319 12.2249 32.3968 12.2249H29.7207V16.4659H27.5685V4.09638H32.3968ZM32.3968 10.3165C33.033 10.3165 33.557 10.1162 33.9688 9.71566C34.3805 9.30335 34.5863 8.78501 34.5863 8.16064C34.5863 7.53628 34.3805 7.02383 33.9688 6.62329C33.557 6.21098 33.033 6.00482 32.3968 6.00482H29.7207V10.3165H32.3968Z" fill="white"/>
<path d="M39.4087 12.861C39.5584 13.5325 39.9015 14.0509 40.438 14.4161C40.9744 14.7695 41.6294 14.9462 42.403 14.9462C43.4759 14.9462 44.2806 14.581 44.8171 13.8506L46.4826 14.7695C45.5594 16.0535 44.1933 16.6956 42.3842 16.6956C40.8622 16.6956 39.6333 16.2597 38.6976 15.388C37.7619 14.5044 37.294 13.3912 37.294 12.0482C37.294 10.7288 37.7556 9.62731 38.6789 8.74378C39.6021 7.84846 40.7873 7.4008 42.2345 7.4008C43.6069 7.4008 44.7297 7.85435 45.6031 8.76145C46.4889 9.66854 46.9318 10.77 46.9318 12.0659C46.9318 12.2661 46.9068 12.5312 46.8569 12.861H39.4087ZM39.39 11.306H44.8919C44.7547 10.5874 44.4365 10.0455 43.9375 9.68032C43.4509 9.31513 42.877 9.13253 42.2158 9.13253C41.4672 9.13253 40.8434 9.32691 40.3444 9.71566C39.8454 10.1044 39.5272 10.6345 39.39 11.306Z" fill="white"/>
<path d="M56.5789 14.6635H57.8327V18.8337H55.849V16.4659H49.4301V18.8337H47.4464V14.6635H48.588C49.1618 13.8977 49.4488 12.8316 49.4488 11.4651V7.63052H56.5789V14.6635ZM50.8149 14.6635H54.5952V9.37992H51.4325V11.4651C51.4325 12.7256 51.2266 13.7917 50.8149 14.6635Z" fill="white"/>
<path d="M63.5254 16.6956C62.1156 16.6956 60.9367 16.2479 59.9885 15.3526C59.0528 14.4573 58.5849 13.3558 58.5849 12.0482C58.5849 10.7288 59.0528 9.62731 59.9885 8.74378C60.9367 7.84846 62.1156 7.4008 63.5254 7.4008C64.4362 7.4008 65.2658 7.60696 66.0144 8.01928C66.763 8.43159 67.3244 8.98527 67.6987 9.68032L65.9583 10.6345C65.7462 10.2104 65.4218 9.88059 64.9851 9.64498C64.5609 9.39759 64.0681 9.2739 63.5067 9.2739C62.6833 9.2739 61.9909 9.53896 61.4295 10.0691C60.8805 10.5992 60.606 11.2589 60.606 12.0482C60.606 12.8375 60.8805 13.4972 61.4295 14.0273C61.9909 14.5574 62.6833 14.8225 63.5067 14.8225C64.0557 14.8225 64.5485 14.6988 64.9851 14.4514C65.4343 14.204 65.7711 13.8742 65.9957 13.4618L67.7361 14.3984C67.3369 15.1052 66.763 15.6648 66.0144 16.0771C65.2658 16.4894 64.4362 16.6956 63.5254 16.6956Z" fill="white"/>
<path d="M76.2543 7.63052V9.46827H73.204V16.4659H71.1828V9.46827H68.1137V7.63052H76.2543Z" fill="white"/>
<path d="M84.6672 7.63052H86.6883V16.4659H84.6672V15.1936C83.9062 16.1949 82.8145 16.6956 81.3922 16.6956C80.1072 16.6956 79.0093 16.2479 78.0986 15.3526C77.1878 14.4455 76.7324 13.344 76.7324 12.0482C76.7324 10.7406 77.1878 9.63909 78.0986 8.74378C79.0093 7.84846 80.1072 7.4008 81.3922 7.4008C82.8145 7.4008 83.9062 7.89558 84.6672 8.88514V7.63052ZM79.5957 14.0803C80.1571 14.6104 80.862 14.8755 81.7104 14.8755C82.5588 14.8755 83.2637 14.6104 83.8251 14.0803C84.3865 13.5384 84.6672 12.861 84.6672 12.0482C84.6672 11.2353 84.3865 10.5639 83.8251 10.0337C83.2637 9.49183 82.5588 9.22088 81.7104 9.22088C80.862 9.22088 80.1571 9.49183 79.5957 10.0337C79.0343 10.5639 78.7536 11.2353 78.7536 12.0482C78.7536 12.861 79.0343 13.5384 79.5957 14.0803Z" fill="white"/>
<path d="M94.3402 7.4008C95.6252 7.4008 96.7231 7.85435 97.6339 8.76145C98.5446 9.65676 99 10.7523 99 12.0482C99 13.3558 98.5446 14.4573 97.6339 15.3526C96.7231 16.2479 95.6252 16.6956 94.3402 16.6956C92.9179 16.6956 91.8263 16.2008 91.0652 15.2112V20H89.0441V7.63052H91.0652V8.90281C91.8263 7.90147 92.9179 7.4008 94.3402 7.4008ZM91.9074 14.0803C92.4688 14.6104 93.1737 14.8755 94.022 14.8755C94.8704 14.8755 95.5753 14.6104 96.1367 14.0803C96.6982 13.5384 96.9789 12.861 96.9789 12.0482C96.9789 11.2353 96.6982 10.5639 96.1367 10.0337C95.5753 9.49183 94.8704 9.22088 94.022 9.22088C93.1737 9.22088 92.4688 9.49183 91.9074 10.0337C91.3459 10.5639 91.0652 11.2353 91.0652 12.0482C91.0652 12.861 91.3459 13.5384 91.9074 14.0803Z" fill="white"/>
</svg>
