<svg width="73" height="15" viewBox="0 0 73 15" fill="none" xmlns="http://www.w3.org/2000/svg">
<path d="M7.20684 13.9018C11.1871 13.9018 14.4137 10.7897 14.4137 6.95088C14.4137 3.11202 11.1871 1.64347e-07 7.20684 0C3.22661 -1.64347e-07 1.6515e-07 3.11201 0 6.95088C-1.6515e-07 10.7897 3.22661 13.9018 7.20684 13.9018Z" fill="#D92C04"/>
<path d="M23.8885 3.07229C24.7993 3.07229 25.5582 3.36386 26.1654 3.94699C26.7818 4.53012 27.09 5.25462 27.09 6.12048C27.09 6.97751 26.7818 7.70201 26.1654 8.29398C25.5582 8.87711 24.7993 9.16867 23.8885 9.16867H21.9152V12.3494H20.3283V3.07229H23.8885ZM23.8885 7.73735C24.3577 7.73735 24.7441 7.58715 25.0477 7.28675C25.3512 6.97751 25.503 6.58875 25.503 6.12048C25.503 5.65221 25.3512 5.26787 25.0477 4.96747C24.7441 4.65823 24.3577 4.50361 23.8885 4.50361H21.9152V7.73735H23.8885Z" fill="white"/>
<path d="M29.0589 9.64578C29.1693 10.1494 29.4223 10.5382 29.8179 10.812C30.2135 11.0771 30.6965 11.2096 31.2668 11.2096C32.058 11.2096 32.6514 10.9357 33.0469 10.388L34.2751 11.0771C33.5943 12.0402 32.587 12.5217 31.253 12.5217C30.1307 12.5217 29.2245 12.1948 28.5346 11.541C27.8446 10.8783 27.4996 10.0434 27.4996 9.03614C27.4996 8.04659 27.84 7.22048 28.5208 6.55783C29.2015 5.88635 30.0755 5.5506 31.1426 5.5506C32.1546 5.5506 32.9825 5.89076 33.6265 6.57108C34.2797 7.25141 34.6062 8.07751 34.6062 9.0494C34.6062 9.1996 34.5878 9.39839 34.551 9.64578H29.0589ZM29.0451 8.47952H33.1021C33.0009 7.94056 32.7663 7.53414 32.3984 7.26024C32.0396 6.98634 31.6164 6.8494 31.1288 6.8494C30.5769 6.8494 30.1169 6.99518 29.7489 7.28675C29.3809 7.57831 29.1463 7.9759 29.0451 8.47952Z" fill="white"/>
<path d="M41.7198 10.9976H42.6443V14.1253H41.1816V12.3494H36.4484V14.1253H34.9857V10.9976H35.8275C36.2507 10.4233 36.4622 9.6237 36.4622 8.5988V5.72289H41.7198V10.9976ZM37.4696 10.9976H40.257V7.03494H37.925V8.5988C37.925 9.54418 37.7732 10.3438 37.4696 10.9976Z" fill="white"/>
<path d="M46.842 12.5217C45.8024 12.5217 44.9331 12.1859 44.2339 11.5145C43.544 10.843 43.199 10.0169 43.199 9.03614C43.199 8.04659 43.544 7.22048 44.2339 6.55783C44.9331 5.88635 45.8024 5.5506 46.842 5.5506C47.5136 5.5506 48.1253 5.70522 48.6773 6.01446C49.2293 6.3237 49.6432 6.73896 49.9192 7.26024L48.6359 7.9759C48.4795 7.65783 48.2403 7.41044 47.9183 7.23374C47.6055 7.04819 47.2422 6.95542 46.8282 6.95542C46.221 6.95542 45.7104 7.15422 45.2965 7.55181C44.8917 7.9494 44.6893 8.44418 44.6893 9.03614C44.6893 9.62811 44.8917 10.1229 45.2965 10.5205C45.7104 10.9181 46.221 11.1169 46.8282 11.1169C47.233 11.1169 47.5963 11.0241 47.9183 10.8386C48.2495 10.653 48.4979 10.4056 48.6635 10.0964L49.9468 10.7988C49.6524 11.3289 49.2293 11.7486 48.6773 12.0578C48.1253 12.3671 47.5136 12.5217 46.842 12.5217Z" fill="white"/>
<path d="M56.228 5.72289V7.1012H53.9787V12.3494H52.4884V7.1012H50.2253V5.72289H56.228Z" fill="white"/>
<path d="M62.4314 5.72289H63.9217V12.3494H62.4314V11.3952C61.8702 12.1462 61.0653 12.5217 60.0165 12.5217C59.069 12.5217 58.2594 12.1859 57.5878 11.5145C56.9163 10.8341 56.5805 10.008 56.5805 9.03614C56.5805 8.05542 56.9163 7.22932 57.5878 6.55783C58.2594 5.88635 59.069 5.5506 60.0165 5.5506C61.0653 5.5506 61.8702 5.92169 62.4314 6.66386V5.72289ZM58.6918 10.5602C59.1058 10.9578 59.6255 11.1566 60.2511 11.1566C60.8767 11.1566 61.3964 10.9578 61.8104 10.5602C62.2244 10.1538 62.4314 9.64578 62.4314 9.03614C62.4314 8.42651 62.2244 7.92289 61.8104 7.5253C61.3964 7.11887 60.8767 6.91566 60.2511 6.91566C59.6255 6.91566 59.1058 7.11887 58.6918 7.5253C58.2778 7.92289 58.0708 8.42651 58.0708 9.03614C58.0708 9.64578 58.2778 10.1538 58.6918 10.5602Z" fill="white"/>
<path d="M69.564 5.5506C70.5115 5.5506 71.3211 5.89076 71.9926 6.57108C72.6642 7.24257 73 8.06426 73 9.03614C73 10.0169 72.6642 10.843 71.9926 11.5145C71.3211 12.1859 70.5115 12.5217 69.564 12.5217C68.5152 12.5217 67.7103 12.1506 67.1491 11.4084V15H65.6588V5.72289H67.1491V6.67711C67.7103 5.9261 68.5152 5.5506 69.564 5.5506ZM67.7701 10.5602C68.1841 10.9578 68.7038 11.1566 69.3294 11.1566C69.955 11.1566 70.4747 10.9578 70.8887 10.5602C71.3027 10.1538 71.5097 9.64578 71.5097 9.03614C71.5097 8.42651 71.3027 7.92289 70.8887 7.5253C70.4747 7.11887 69.955 6.91566 69.3294 6.91566C68.7038 6.91566 68.1841 7.11887 67.7701 7.5253C67.3561 7.92289 67.1491 8.42651 67.1491 9.03614C67.1491 9.64578 67.3561 10.1538 67.7701 10.5602Z" fill="white"/>
</svg>
